<svg width="281" height="162" viewBox="0 0 281 162" fill="none" xmlns="http://www.w3.org/2000/svg">
<g clip-path="url(#clip0)">
<rect width="281" height="161.022" rx="9.47191" fill="url(#paint0_linear)"/>
<path d="M222.265 15.3952L223.065 16.1011L251.006 44.0355L278.947 16.1011C282.005 13.0423 286.819 12.807 290.147 15.3952L290.947 16.1011L341.858 67.0126C344.917 70.0714 345.152 74.8845 342.564 78.2132L341.858 79.0126L257.006 163.865C255.731 165.14 254.152 165.924 252.503 166.218L251.507 166.336H250.505C248.503 166.218 246.535 165.395 245.006 163.865L160.153 79.0126C157.094 75.9538 156.859 71.1407 159.447 67.812L160.153 67.0126L211.065 16.1011C213.869 13.2972 218.147 12.8659 221.404 14.807L222.265 15.3952ZM217.065 34.1077L178.16 73.0126L251.006 145.858L255.969 140.895L249.248 134.167C245.935 130.853 245.935 125.48 249.248 122.167C252.307 119.108 257.12 118.873 260.449 121.461L261.248 122.167L267.976 128.888L272.94 123.924L266.219 117.196C262.905 113.883 262.905 108.51 266.219 105.196C269.278 102.137 274.091 101.902 277.419 104.49L278.219 105.196L284.947 111.917L289.91 106.954L267.976 85.0192L248.52 104.468C246.017 106.971 242.258 107.634 239.087 106.228L238.155 105.744L216.942 93.0165L216.118 92.4548L215.307 91.7405C214.992 91.425 214.706 91.0909 214.451 90.7416L213.763 89.6271L213.345 88.6757L213.14 88.0482L212.957 87.2526L212.844 86.3589L212.821 85.6433L212.845 85.1199L212.944 84.292L213.203 83.221L213.352 82.7832C213.648 81.9858 214.064 81.2309 214.601 80.5399L215.307 79.7405L238.999 56.0421L217.065 34.1077ZM284.947 34.1077L234.994 84.0519L241.197 87.7769L261.976 67.0126C265.035 63.9538 269.848 63.7185 273.177 66.3068L273.976 67.0126L301.917 94.947L323.851 73.0126L284.947 34.1077Z" fill="url(#paint1_linear)"/>
</g>
<defs>
<linearGradient id="paint0_linear" x1="281" y1="80.5113" x2="-2.9988e-06" y2="80.5113" gradientUnits="userSpaceOnUse">
<stop stop-color="#FFE9AD" stop-opacity="0.25"/>
<stop offset="1" stop-color="#FFE9AD"/>
</linearGradient>
<linearGradient id="paint1_linear" x1="251.006" y1="166.336" x2="251.006" y2="13.6158" gradientUnits="userSpaceOnUse">
<stop stop-color="#FEF8EF"/>
<stop offset="1" stop-color="#FFE9AD"/>
</linearGradient>
<clipPath id="clip0">
<rect width="281" height="161.022" rx="9.47191" fill="white"/>
</clipPath>
</defs>
</svg>
