<svg width="160" height="160" viewBox="0 0 160 160" fill="none" xmlns="http://www.w3.org/2000/svg">
<path fill-rule="evenodd" clip-rule="evenodd" d="M126.972 100.441L120.31 106.874C119.47 107.685 118.074 107.615 117.208 106.718L110.255 99.5184C109.389 98.6216 109.368 97.2241 110.207 96.413L116.87 89.9794C117.71 89.1683 119.106 89.2385 119.972 90.1354L126.925 97.3353C127.791 98.2321 127.812 99.6296 126.972 100.441Z" fill="#FAAD14"/>
<path fill-rule="evenodd" clip-rule="evenodd" d="M135.181 58.0287L135.343 67.2889C135.363 68.4564 134.36 69.4293 133.113 69.451L123.106 69.6257C121.859 69.6475 120.822 68.7102 120.802 67.5428L120.64 58.2825C120.62 57.1151 121.623 56.1421 122.87 56.1203L132.878 55.9456C134.124 55.9239 135.161 56.8613 135.181 58.0287Z" fill="#FAAD14"/>
<path fill-rule="evenodd" clip-rule="evenodd" d="M111.265 18.8499L119.286 23.4807C120.297 24.0645 120.614 25.4256 119.991 26.5053L114.986 35.1734C114.363 36.2532 113.025 36.6591 112.014 36.0753L103.993 31.4445C102.982 30.8607 102.665 29.4995 103.288 28.4197L108.293 19.7516C108.916 18.6719 110.254 18.2661 111.265 18.8499Z" fill="#FAAD14"/>
<path fill-rule="evenodd" clip-rule="evenodd" d="M74.5858 9.7615L83.8348 10.2462C85.0008 10.3073 85.9013 11.3761 85.8361 12.6211L85.3122 22.6165C85.247 23.8616 84.2397 24.8304 83.0737 24.7693L73.8247 24.2846C72.6587 24.2234 71.758 23.1547 71.8233 21.9096L72.3471 11.9142C72.4123 10.6692 73.4198 9.7004 74.5858 9.7615Z" fill="#FAAD14"/>
<path fill-rule="evenodd" clip-rule="evenodd" d="M34.2815 28.1692L41.3763 22.2159C42.2708 21.4654 43.6583 21.6329 44.4597 22.5879L50.8934 30.2553C51.6948 31.2104 51.6188 32.606 50.7244 33.3565L43.6295 39.3098C42.7351 40.0603 41.3475 39.8929 40.5461 38.9378L34.1123 31.2703C33.311 30.3153 33.3871 28.9197 34.2815 28.1692Z" fill="#FAAD14"/>
<path fill-rule="evenodd" clip-rule="evenodd" d="M16.3512 69.0702L17.9595 59.9493C18.1622 58.7994 19.3328 58.0358 20.5605 58.2523L30.4176 59.9904C31.6455 60.2069 32.4843 61.3248 32.2815 62.4746L30.6732 71.5956C30.4705 72.7454 29.2999 73.5091 28.072 73.2926L18.215 71.5546C16.9872 71.3381 16.1485 70.2201 16.3512 69.0702Z" fill="#FAAD14"/>
<path d="M107.952 75.1862C107.952 57.2896 93.4628 42.6296 75.589 42.6296C57.7152 42.6296 43.2249 57.2896 43.2249 75.1862C43.2249 82.2693 46.98 91.4185 53.0099 98.1639C58.9892 104.848 60.6922 116.1 60.6922 125.073L60.6922 128.592L90.4858 128.592L90.4858 125.103C90.4858 116.13 92.1889 104.899 98.1375 98.1932C104.187 91.3784 107.952 81.4164 107.952 75.1862Z" fill="#FFE58F"/>
<path d="M102.626 75.0984C102.626 60.1501 90.5245 47.9019 75.5891 47.9019C60.6536 47.9019 48.5552 60.1488 48.5552 75.0984C48.5552 81.0203 51.6907 88.66 56.7292 94.2949C61.7237 99.8792 65.4322 109.279 65.4322 116.775L65.4322 119.711L85.7473 119.711L85.7473 116.8C85.7473 109.303 89.4558 99.9206 94.4263 94.319C99.4807 88.6266 102.626 80.3049 102.626 75.0997L102.626 75.0984Z" fill="#FAAD14"/>
<path d="M83.803 145.008L67.3751 145.008C66.8007 145.008 66.277 144.634 65.9652 144.02L63.7305 138.229L87.4503 138.229L85.2155 144.02C84.9024 144.634 84.38 145.008 83.8057 145.008L83.803 145.008Z" fill="#292B2D"/>
<path d="M87.7917 115.208L63.3862 115.208C61.5723 115.208 60.1018 116.678 60.1018 118.492L60.1018 137.438C60.1018 139.252 61.5723 140.723 63.3862 140.723L87.7917 140.723C89.6056 140.723 91.0761 139.252 91.0761 137.438L91.0761 118.492C91.0761 116.678 89.6056 115.208 87.7917 115.208Z" fill="#FA4A0C"/>
<path fill-rule="evenodd" clip-rule="evenodd" d="M59.7507 122.698C59.7507 122.482 59.9259 122.306 60.1419 122.306L77.592 122.306C77.808 122.306 77.9832 122.482 77.9832 122.698C77.9832 122.914 77.808 123.089 77.592 123.089L60.1419 123.089C59.9259 123.089 59.7507 122.914 59.7507 122.698Z" fill="white"/>
<path fill-rule="evenodd" clip-rule="evenodd" d="M59.7507 134.041C59.7507 133.825 59.9259 133.65 60.1419 133.65L77.592 133.65C77.808 133.65 77.9832 133.825 77.9832 134.041C77.9832 134.257 77.808 134.433 77.592 134.433L60.1419 134.433C59.9259 134.433 59.7507 134.257 59.7507 134.041Z" fill="white"/>
<path fill-rule="evenodd" clip-rule="evenodd" d="M73.135 128.369C73.135 128.153 73.3102 127.978 73.5262 127.978L90.9763 127.978C91.1923 127.978 91.3675 128.153 91.3675 128.369C91.3675 128.585 91.1923 128.76 90.9763 128.76L73.5262 128.76C73.3102 128.76 73.135 128.585 73.135 128.369Z" fill="white"/>
<path d="M77.7963 62.1014L65.5967 80.7134C64.9404 81.7225 65.6464 82.9633 66.829 82.9633L72.2939 82.9633L65.5747 95.6751C65.0739 96.703 66.3656 97.6567 67.1577 96.8439L85.4312 78.4569C86.3633 77.5 85.7014 75.8655 84.3821 75.8655L76.1185 75.8655L79.5757 62.9131C79.846 61.8075 78.4108 61.1589 77.7963 62.1014Z" fill="white"/>
</svg>
