<svg width="258" height="164" viewBox="0 0 258 164" fill="none" xmlns="http://www.w3.org/2000/svg">
<g clip-path="url(#clip0)">
<g opacity="0.35">
<path fill-rule="evenodd" clip-rule="evenodd" d="M265.476 60.1167C256.563 51.1838 242.089 51.2643 233.276 60.296L228.828 64.8539C217.949 76.0011 200.002 75.8467 189.316 64.5149L185.894 60.8862C185.894 60.8862 185.895 60.8862 185.894 60.8862C177.132 51.5938 162.445 51.386 153.425 60.4267L149.191 64.6694C138.023 75.8621 119.749 75.3015 109.285 63.4464C100.235 53.1932 84.2574 53.2429 75.2706 63.5523C74.4075 64.5424 72.9051 64.6454 71.915 63.7822C70.9249 62.9191 70.8219 61.4168 71.685 60.4267C82.5598 47.9516 101.899 47.8913 112.851 60.2986C121.499 70.0959 136.596 70.5584 145.824 61.3097L150.057 57.067C160.974 46.1262 178.751 46.3781 189.355 57.6228L192.777 61.2515C192.777 61.2516 192.777 61.2515 192.777 61.2515C201.607 70.6158 216.434 70.7432 225.423 61.5318L229.871 56.9738C240.537 46.0444 258.057 45.9468 268.844 56.757C269.771 57.6868 269.77 59.1927 268.84 60.1204C267.91 61.0482 266.404 61.0465 265.476 60.1167Z" fill="url(#paint0_linear)"/>
<path fill-rule="evenodd" clip-rule="evenodd" d="M265.476 101.544C256.563 92.6108 242.089 92.6913 233.276 101.723L228.828 106.281C217.949 117.428 200.002 117.274 189.316 105.942L185.894 102.313C185.894 102.313 185.895 102.313 185.894 102.313C177.132 93.0209 162.445 92.813 153.425 101.854L149.191 106.097C138.023 117.289 119.749 116.729 109.285 104.873C100.235 94.6203 84.2574 94.67 75.2706 104.979C74.4075 105.969 72.9051 106.072 71.915 105.209C70.9249 104.346 70.8219 102.844 71.685 101.854C82.5598 89.3787 101.899 89.3184 112.851 101.726C121.499 111.523 136.596 111.985 145.824 102.737L150.057 98.4941C160.974 87.5533 178.751 87.8052 189.355 99.0499L192.777 102.679C192.777 102.679 192.777 102.679 192.777 102.679C201.607 112.043 216.434 112.17 225.423 102.959L229.871 98.4009C240.537 87.4714 258.057 87.3738 268.844 98.184C269.771 99.1139 269.77 100.62 268.84 101.547C267.91 102.475 266.404 102.474 265.476 101.544Z" fill="url(#paint1_linear)"/>
<path fill-rule="evenodd" clip-rule="evenodd" d="M265.476 143.398C256.563 134.465 242.089 134.545 233.276 143.577L228.828 148.135C217.949 159.282 200.002 159.128 189.316 147.796L185.894 144.167C185.894 144.167 185.895 144.167 185.894 144.167C177.132 134.875 162.445 134.667 153.425 143.708L149.191 147.951C138.023 159.143 119.749 158.583 109.285 146.728C100.235 136.474 84.2574 136.524 75.2706 146.834C74.4075 147.824 72.9051 147.927 71.915 147.063C70.9249 146.2 70.8219 144.698 71.685 143.708C82.5598 131.233 101.899 131.173 112.851 143.58C121.499 153.377 136.596 153.84 145.824 144.591L150.057 140.348C160.974 129.407 178.751 129.659 189.355 140.904L192.777 144.533C192.777 144.533 192.777 144.533 192.777 144.533C201.607 153.897 216.434 154.024 225.423 144.813L229.871 140.255C240.537 129.326 258.057 129.228 268.844 140.038C269.771 140.968 269.77 142.474 268.84 143.402C267.91 144.329 266.404 144.328 265.476 143.398Z" fill="url(#paint2_linear)"/>
</g>
<path fill-rule="evenodd" clip-rule="evenodd" d="M113.97 99.2314C114.122 100.522 113.21 101.694 111.927 101.866L111.888 101.871C107.596 102.544 106.964 106.839 106.873 108.288C106.997 109.571 106.072 110.724 104.786 110.875C103.482 111.029 102.3 110.097 102.146 108.793C102.021 107.735 102.611 106.758 103.534 106.344L103.523 106.336C109.215 104.457 109.324 100.765 109.249 99.7995L109.248 99.7891C109.243 99.7504 109.24 99.7118 109.237 99.6733C109.229 99.6023 109.221 99.5642 109.221 99.5642L109.232 99.5736C109.198 98.3572 110.098 97.2946 111.33 97.1491C112.634 96.9951 113.816 97.9274 113.97 99.2314Z" fill="#FFD666"/>
<path fill-rule="evenodd" clip-rule="evenodd" d="M120.036 114.148C119.565 114.625 118.796 114.631 118.319 114.162C118.108 113.954 117.989 113.688 117.962 113.415L117.963 113.414C117.278 110.671 115.506 110.424 115.027 110.409C115.025 110.409 115.023 110.409 115.021 110.409C115.001 110.409 114.981 110.409 114.961 110.408C114.925 110.408 114.905 110.41 114.905 110.41L114.911 110.405C114.291 110.354 113.802 109.838 113.798 109.206C113.793 108.537 114.333 107.99 115.003 107.985C115.667 107.98 116.21 108.507 116.226 109.167L116.226 109.187C116.326 111.398 118.468 111.959 119.2 112.086C119.498 112.093 119.794 112.209 120.024 112.434C120.501 112.904 120.507 113.671 120.036 114.148Z" fill="#ADC6FF"/>
<path fill-rule="evenodd" clip-rule="evenodd" d="M130.035 26.6983H52.5894V19.7442C52.5894 18.2357 53.8099 17.0127 55.3152 17.0127H127.309C128.814 17.0127 130.035 18.2357 130.035 19.7442V26.6983Z" fill="#FFE9AD"/>
<path fill-rule="evenodd" clip-rule="evenodd" d="M127.309 93.655H55.3152C53.8099 93.655 52.5894 92.432 52.5894 90.9234V25.8837H130.035V90.9234C130.035 92.432 128.814 93.655 127.309 93.655Z" fill="#FFE9AD"/>
<path fill-rule="evenodd" clip-rule="evenodd" d="M58.8832 21.5201C58.8832 22.4668 58.1172 23.2344 57.1724 23.2344C56.2277 23.2344 55.4619 22.4668 55.4619 21.5201C55.4619 20.5734 56.2277 19.8058 57.1724 19.8058C58.1172 19.8058 58.8832 20.5734 58.8832 21.5201Z" fill="#FF7946"/>
<path fill-rule="evenodd" clip-rule="evenodd" d="M65.2715 21.5201C65.2715 22.4668 64.5057 23.2344 63.5609 23.2344C62.6162 23.2344 61.8503 22.4668 61.8503 21.5201C61.8503 20.5734 62.6162 19.8058 63.5609 19.8058C64.5057 19.8058 65.2715 20.5734 65.2715 21.5201Z" fill="#FAAD14"/>
<path fill-rule="evenodd" clip-rule="evenodd" d="M71.6601 21.5201C71.6601 22.4668 70.8942 23.2344 69.9494 23.2344C69.0047 23.2344 68.2389 22.4668 68.2389 21.5201C68.2389 20.5734 69.0047 19.8058 69.9494 19.8058C70.8942 19.8058 71.6601 20.5734 71.6601 21.5201Z" fill="#7CB305"/>
<path fill-rule="evenodd" clip-rule="evenodd" d="M60.9599 84.4366C60.49 84.4366 60.1093 84.0552 60.1093 83.5849V34.2117C60.1093 33.7413 60.49 33.36 60.9599 33.36H122.51C122.98 33.36 123.361 33.7413 123.361 34.2117V83.5849C123.361 84.0552 122.98 84.4366 122.51 84.4366H60.9599Z" fill="white"/>
<path d="M81.4859 54.8808C81.8399 54.5777 82.376 54.6457 82.6441 55.0225L82.658 55.0426L95.0439 73.6078L104.625 66.8758C104.738 66.796 104.87 66.7476 105.008 66.7352L105.038 66.7331L117.697 66.0725C118.133 66.0498 118.505 66.3849 118.528 66.8211C118.55 67.2496 118.227 67.6162 117.802 67.6505L117.779 67.652L105.348 68.3006L95.2904 75.3677C94.9335 75.6184 94.4427 75.5324 94.1916 75.1794L94.1779 75.1595L81.8371 56.662L67.4141 69.0103C67.0885 69.2891 66.6016 69.257 66.3151 68.9421L66.2991 68.9239C66.0203 68.5983 66.0524 68.1114 66.3674 67.8249L66.3855 67.8089L81.4859 54.8808Z" fill="#FF7946"/>
<path d="M115.822 43.6765C116.065 43.3137 116.557 43.2169 116.919 43.4601C117.276 43.699 117.375 44.1769 117.149 44.5375L117.136 44.5574L105.873 61.3511C105.591 61.7723 104.993 61.8211 104.645 61.4575L104.628 61.4393L91.7556 47.1166L82.8324 53.1373C82.7065 53.2222 82.5589 53.269 82.4075 53.2723L82.3772 53.2724L66.8869 53.0192C66.4502 53.0121 66.102 52.6523 66.109 52.2156C66.1161 51.7866 66.4635 51.4429 66.8898 51.4378L66.9127 51.4378L82.1541 51.6869L91.4415 45.4206C91.7617 45.2046 92.19 45.252 92.4552 45.5295L92.472 45.5476L105.126 59.6264L115.822 43.6765Z" fill="#FAAD14"/>
<path d="M96.3115 54.4317C96.5089 54.2591 96.7784 54.1959 97.0309 54.2615L97.057 54.2688L105.304 56.7149L117.458 54.7783C117.882 54.7107 118.281 54.9933 118.36 55.4122L118.364 55.4348C118.431 55.8585 118.149 56.2572 117.73 56.3362L117.707 56.3401L105.375 58.305C105.269 58.3219 105.161 58.317 105.057 58.2908L105.026 58.2822L97.0248 55.9089L83.1217 68.0686C82.8655 68.2926 82.4958 68.3271 82.2034 68.1569L82.1816 68.1438L65.5718 57.7511C65.2015 57.5194 65.0892 57.0315 65.3208 56.6612C65.5483 56.2977 66.0228 56.1828 66.3904 56.398L66.4107 56.4103L82.5225 66.4914L96.3115 54.4317Z" fill="#597EF7"/>
<path fill-rule="evenodd" clip-rule="evenodd" d="M82.0505 39.8236H66.4695C65.8316 39.8236 65.3098 39.3007 65.3098 38.6615C65.3098 38.0222 65.8316 37.4993 66.4695 37.4993H82.0505C82.6883 37.4993 83.2102 38.0222 83.2102 38.6615C83.2102 39.3007 82.6883 39.8236 82.0505 39.8236Z" fill="#FFE9AD"/>
<path fill-rule="evenodd" clip-rule="evenodd" d="M73.042 45.3048H67.2433C66.6028 45.3048 66.0834 44.7844 66.0834 44.1426C66.0834 43.5007 66.6028 42.9805 67.2433 42.9805H73.042C73.6826 42.9805 74.2017 43.5007 74.2017 44.1426C74.2017 44.7844 73.6826 45.3048 73.042 45.3048Z" fill="#FFE9AD"/>
<path d="M115.055 70.5937C112.339 70.5937 110.144 72.8251 110.144 75.5702C110.144 78.3152 112.339 80.5465 115.055 80.5465C117.771 80.5465 119.966 78.3152 119.966 75.5702C119.966 72.8251 117.771 70.5937 115.055 70.5937ZM115.055 72.4657C116.73 72.4657 118.094 73.8522 118.094 75.5702C118.094 77.2881 116.73 78.6745 115.055 78.6745C113.38 78.6745 112.016 77.2881 112.016 75.5702C112.016 73.8522 113.38 72.4657 115.055 72.4657Z" fill="#FFE9AD"/>
<path d="M118.321 72.9455C118.797 72.7421 119.347 72.9625 119.55 73.4378C119.823 74.0763 119.966 74.7714 119.966 75.4858C119.966 76.0705 119.87 76.6428 119.685 77.1828C119.517 77.6717 118.985 77.9321 118.496 77.7643C118.015 77.5993 117.755 77.0813 117.907 76.5989L117.914 76.5752C118.033 76.2304 118.094 75.8634 118.094 75.4858C118.094 75.0442 118.01 74.6175 117.85 74.2252L117.829 74.1742C117.626 73.6989 117.846 73.1488 118.321 72.9455Z" fill="#597EF7"/>
<g clip-path="url(#clip1)">
<path d="M58.5163 131.478C64.3186 134.828 71.6775 132.945 74.953 127.272C78.2285 121.598 76.1802 114.283 70.3779 110.934C64.5757 107.584 57.2167 109.467 53.9412 115.14C50.6657 120.814 52.7141 128.128 58.5163 131.478Z" fill="#FFD666"/>
<path d="M59.7087 129.271C64.3182 131.932 70.1643 130.436 72.7665 125.929C75.3686 121.422 73.7413 115.611 69.1319 112.95C64.5224 110.288 58.6763 111.785 56.0741 116.292C53.472 120.799 55.0993 126.61 59.7087 129.271Z" fill="#FFC53D"/>
<path d="M65.7736 115.154C65.8437 115.195 65.8857 115.27 65.8823 115.35L65.7261 119.018L68.8248 117.048C68.8897 117.007 68.9727 117.004 69.0416 117.041L69.0484 117.045L70.1207 117.664C70.1855 117.701 70.2267 117.769 70.2295 117.843C70.2322 117.916 70.196 117.985 70.1339 118.025L67.2119 119.882L68.4509 120.598C68.5763 120.67 68.6205 120.828 68.5498 120.951L67.9588 121.974C67.888 122.097 67.729 122.138 67.6037 122.065L65.5911 120.903L64.7571 122.348L66.7697 123.51C66.895 123.582 66.9393 123.74 66.8685 123.863L66.2775 124.887C66.2067 125.009 66.0477 125.05 65.9224 124.977L63.9098 123.815L62.3272 126.557C62.2691 126.657 62.1379 126.69 62.0343 126.631L60.9087 125.981C60.8051 125.921 60.7682 125.791 60.8263 125.69L62.409 122.949L60.3964 121.787C60.2711 121.715 60.2268 121.557 60.2976 121.434L60.8886 120.41C60.9593 120.288 61.1183 120.247 61.2437 120.319L63.2562 121.481L64.0903 120.037L62.0777 118.875C61.9523 118.803 61.9081 118.645 61.9788 118.522L62.5698 117.498C62.6406 117.376 62.7996 117.335 62.9249 117.407L64.2343 118.163L64.3822 114.704C64.3854 114.63 64.427 114.565 64.4921 114.53C64.5572 114.496 64.6365 114.498 64.7013 114.535L65.7736 115.154Z" fill="white"/>
</g>
<g clip-path="url(#clip2)">
<path fill-rule="evenodd" clip-rule="evenodd" d="M226.589 129.724C227.915 129.369 229.276 130.144 229.651 131.458L229.663 131.498C231.016 135.879 235.598 135.887 237.125 135.762C238.446 135.438 239.791 136.229 240.145 137.55C240.503 138.888 239.709 140.264 238.37 140.623C237.284 140.914 236.174 140.446 235.602 139.545L235.595 139.558C232.768 133.897 228.896 134.344 227.899 134.568L227.888 134.571C227.848 134.582 227.809 134.592 227.769 134.6C227.696 134.62 227.657 134.633 227.657 134.633L227.666 134.62C226.4 134.84 225.154 134.061 224.815 132.797C224.456 131.458 225.251 130.082 226.589 129.724Z" fill="#FFD666"/>
<path fill-rule="evenodd" clip-rule="evenodd" d="M241.249 121.124C241.819 121.544 241.942 122.346 241.523 122.916C241.339 123.168 241.079 123.333 240.798 123.402L240.797 123.402C238.036 124.533 238.047 126.421 238.103 126.924C238.104 126.926 238.104 126.928 238.104 126.93C238.107 126.951 238.11 126.972 238.112 126.993C238.118 127.031 238.123 127.051 238.123 127.051L238.117 127.046C238.158 127.701 237.693 128.289 237.034 128.39C236.335 128.497 235.682 128.016 235.575 127.316C235.469 126.624 235.938 125.976 236.625 125.86L236.646 125.856C238.94 125.417 239.2 123.094 239.222 122.311C239.184 121.998 239.26 121.671 239.461 121.398C239.879 120.827 240.68 120.705 241.249 121.124Z" fill="#ADC6FF"/>
</g>
<g clip-path="url(#clip3)">
<path d="M22.5044 80.657C28.7277 84.25 36.6853 82.1178 40.2783 75.8945C43.8714 69.6713 41.7391 61.7136 35.5158 58.1206C29.2926 54.5276 21.3349 56.6598 17.7419 62.8831C14.1489 69.1064 16.2812 77.064 22.5044 80.657Z" fill="#FFD666"/>
<path d="M23.884 78.2676C28.7876 81.0987 35.0578 79.4186 37.8889 74.515C40.72 69.6114 39.0399 63.3412 34.1363 60.5101C29.2327 57.679 22.9625 59.3591 20.1314 64.2627C17.3003 69.1663 18.9804 75.4365 23.884 78.2676Z" fill="#FFC53D"/>
<path fill-rule="evenodd" clip-rule="evenodd" d="M30.6931 64.9867L31.2503 64.0217C31.3016 63.9328 31.2711 63.8193 31.1823 63.768L30.2201 63.2125C30.1313 63.1612 30.0177 63.1916 29.9664 63.2804L29.4093 64.2454L28.2952 63.6022C28.211 63.5536 28.1006 63.5872 28.0485 63.6773L23.6985 71.2119C23.6464 71.302 23.6725 71.4144 23.7567 71.463L24.8709 72.1062L24.2097 73.2514C24.1584 73.3402 24.1889 73.4538 24.2777 73.5051L25.2399 74.0606C25.3287 74.1119 25.4423 74.0814 25.4936 73.9926L26.1547 72.8475L26.8009 73.2205L26.1397 74.3657C26.0884 74.4545 26.1189 74.5681 26.2077 74.6194L27.1697 75.1748C27.2585 75.2261 27.3721 75.1956 27.4234 75.1068L28.1096 73.9183C28.6156 74.1231 29.0801 74.2051 29.5032 74.1642C30.2228 74.0816 30.8111 73.6568 31.2688 72.8641C31.5739 72.3356 31.698 71.8351 31.6356 71.3733C31.5732 70.9116 31.3235 70.4885 30.8972 70.1103C31.3502 70.181 31.7556 70.1204 32.1262 69.9537C32.5098 69.7642 32.8288 69.4492 33.083 69.0088C33.4326 68.4033 33.5105 67.817 33.3231 67.2391C33.1937 66.8323 32.9493 66.4762 32.5883 66.161L33.1801 65.1358C33.2314 65.047 33.201 64.9334 33.1121 64.8822L32.1501 64.3267C32.0613 64.2755 31.9477 64.3059 31.8964 64.3947L31.3393 65.3597L30.6931 64.9867ZM29.807 68.7908L27.5204 67.4706L28.8204 65.2189L31.1273 66.5508C31.6151 66.8324 31.932 67.1282 32.0518 67.4371C32.1776 67.7353 32.1307 68.0748 31.9109 68.4555C31.6789 68.8574 31.3961 69.0889 31.0627 69.1502C30.7358 69.2001 30.3151 69.0841 29.807 68.7908ZM27.8385 72.104L25.5936 70.808L26.7079 68.8779L28.9809 70.1903C29.4693 70.4722 29.792 70.7584 29.9358 71.0522C30.0797 71.346 30.0526 71.6741 29.8509 72.0235C29.6539 72.3646 29.3502 72.522 28.9584 72.5066C28.647 72.4821 28.2705 72.3534 27.8385 72.104Z" fill="white"/>
</g>
<path fill-rule="evenodd" clip-rule="evenodd" d="M183.435 31.47C183.435 31.47 160.542 34.6019 160.026 47.6658C159.761 54.3847 166.103 61.8703 162.875 63.8321C150.259 71.5021 163.654 75.1843 155.616 81.4048C143.662 90.6584 150.358 107.224 162.748 106.493C175.582 105.737 168.957 123.746 191.15 119.177C203.658 116.603 207.357 113.962 216.3 109.813C225.243 105.663 231.305 82.7548 220.772 71.1118C214.229 63.7465 207.761 64.2666 204.348 52.2221C200.935 40.1784 197.532 32.7603 191.597 33.5729C189.532 30.4264 183.435 31.47 183.435 31.47Z" fill="black"/>
<path fill-rule="evenodd" clip-rule="evenodd" d="M169.322 59.3937C169.267 59.141 168.917 59.1159 168.826 59.359C168.03 61.5078 166.103 67.3154 168.391 67.6642C170.971 68.0579 169.822 61.7077 169.322 59.3937Z" fill="white"/>
<path fill-rule="evenodd" clip-rule="evenodd" d="M189.878 77.7967C187.694 67.5669 187.398 63.4892 187.398 63.4892L174.901 68.7369L175.629 79.7948C175.897 83.8656 179.478 86.9057 183.534 86.5068C187.822 86.0845 190.779 82.0154 189.878 77.7967Z" fill="#F4B784"/>
<path fill-rule="evenodd" clip-rule="evenodd" d="M183.772 45.3336C183.772 45.3336 182.464 41.1944 179.579 43.0065C177.516 44.302 178.109 43.177 177.722 42.0589C176.286 37.9077 174.949 47.3828 168.401 49.1205C168.012 54.2047 167.001 72.6046 178.017 72.1987C181.576 72.0681 187.589 70.3208 190.128 64.2406C191.662 60.567 190.753 56.6632 189.295 55.8221C184.495 53.0502 184.729 50.4783 183.772 45.3336Z" fill="#FFC999"/>
<path d="M174.448 49.355C174.288 49.3928 174.182 49.5413 174.194 49.7006L174.202 49.754L174.814 52.3542L174.768 52.8152L174.726 53.196C174.688 53.5279 174.642 53.896 174.587 54.2987C174.366 55.9116 174.05 57.7433 173.623 59.7585C173.591 59.9124 173.671 60.0681 173.815 60.1313C174.563 60.4596 175.328 60.6687 176.073 60.7825C176.49 60.8462 176.833 60.8713 177.078 60.8741L177.177 60.8739C177.36 60.8697 177.505 60.7178 177.501 60.5345C177.497 60.3696 177.374 60.2355 177.216 60.2134L177.162 60.2103H177.082L176.904 60.2043C176.708 60.1941 176.461 60.1702 176.173 60.1264C175.655 60.0472 175.127 59.9183 174.603 59.7307L174.329 59.6264L174.369 59.4306C174.719 57.7359 174.989 56.1748 175.19 54.7685L175.243 54.3888C175.31 53.8996 175.365 53.4604 175.407 53.0737L175.457 52.5963L175.478 52.3541L175.47 52.2527L174.847 49.602C174.809 49.4414 174.661 49.3357 174.502 49.3468L174.448 49.355Z" fill="#DD936F"/>
<path d="M181.489 60.8706C181.402 60.6389 181.144 60.5221 180.912 60.6095L180.614 60.7154C180.559 60.7339 180.499 60.7541 180.434 60.7757C180.05 60.9024 179.627 61.0292 179.177 61.1475C178.236 61.3954 177.309 61.5721 176.448 61.6465C175.758 61.7062 175.133 61.6974 174.59 61.6124C174.346 61.574 174.117 61.7413 174.079 61.9859C174.04 62.2304 174.207 62.4598 174.452 62.4981C175.072 62.5954 175.768 62.6053 176.526 62.5397C177.443 62.4604 178.418 62.2745 179.405 62.0146C179.873 61.8913 180.314 61.7593 180.714 61.6272L181.061 61.509C181.131 61.4844 181.187 61.464 181.229 61.4483C181.46 61.3608 181.577 61.1022 181.489 60.8706Z" fill="#C44343"/>
<path d="M174.684 48.8415C172.212 47.9376 170.331 47.7482 169.027 47.9755C168.842 48.0079 168.711 48.0421 168.636 48.0689C168.411 48.1483 168.292 48.3954 168.372 48.6208C168.445 48.8274 168.658 48.944 168.866 48.9008L168.972 48.8708C169.016 48.8592 169.084 48.8441 169.175 48.8281C170.326 48.6274 172.055 48.8014 174.388 49.6544C174.612 49.7364 174.86 49.6209 174.942 49.3964C175.024 49.172 174.908 48.9235 174.684 48.8415Z" fill="#253368"/>
<path d="M184.195 48.0996C182.872 47.9764 181.447 47.9904 180.101 48.237C179.422 48.3612 178.795 48.5413 178.227 48.784C178.008 48.8779 177.906 49.1322 178 49.3519C178.094 49.5717 178.348 49.6737 178.567 49.5797C179.071 49.364 179.638 49.2015 180.256 49.0883C181.514 48.858 182.864 48.8448 184.115 48.9612L184.396 48.9899C184.533 49.0052 184.636 49.0192 184.702 49.0295C184.938 49.0665 185.159 48.9051 185.196 48.669C185.233 48.4329 185.072 48.2115 184.836 48.1746L184.661 48.1505L184.442 48.1245C184.365 48.116 184.282 48.1076 184.195 48.0996Z" fill="#253368"/>
<path d="M177.151 64.255C176.968 64.2505 176.816 64.3954 176.812 64.5786C176.808 64.7435 176.924 64.8833 177.081 64.9129L177.135 64.9185L178.332 64.948C178.515 64.9524 178.667 64.8076 178.672 64.6243C178.676 64.4594 178.559 64.3196 178.402 64.2901L178.348 64.2844L177.151 64.255Z" fill="#DD936F"/>
<path fill-rule="evenodd" clip-rule="evenodd" d="M196.747 58.6989C197.826 54.4317 193.688 54.5364 193.688 54.5364C193.688 54.5364 193.444 58.8209 192.176 62.6113C196.318 62.6434 196.747 58.6989 196.747 58.6989Z" fill="#FFC999"/>
<path fill-rule="evenodd" clip-rule="evenodd" d="M194.301 61.626C194.247 61.3724 193.897 61.3482 193.806 61.5914C193.01 63.7401 191.083 69.5469 193.37 69.8965C195.951 70.2903 194.802 63.9401 194.301 61.626Z" fill="white"/>
<path d="M173.148 53.8042C172.909 53.8097 172.72 54.0078 172.726 54.2467C172.744 55.0544 172.315 55.6752 171.846 55.6856C171.377 55.6965 170.919 55.0961 170.901 54.2883C170.895 54.0494 170.697 53.8602 170.459 53.8656C170.22 53.8711 170.031 54.0692 170.036 54.3081C170.065 55.5451 170.849 56.5744 171.866 56.5507C172.882 56.5282 173.618 55.4639 173.59 54.2269C173.585 53.988 173.387 53.7987 173.148 53.8042Z" fill="#253368"/>
<path d="M182.904 53.9178C182.666 53.9233 182.477 54.1214 182.482 54.3603C182.5 55.1678 182.071 55.7883 181.602 55.7992C181.133 55.8101 180.675 55.2097 180.657 54.402C180.651 54.1631 180.454 53.9738 180.215 53.9793C179.976 53.9847 179.787 54.1828 179.793 54.4217C179.821 55.6588 180.605 56.688 181.622 56.6643C182.639 56.6407 183.375 55.5771 183.346 54.3405C183.341 54.1016 183.143 53.9124 182.904 53.9178Z" fill="#253368"/>
<path fill-rule="evenodd" clip-rule="evenodd" d="M130.066 127.177C130.066 127.177 146.849 99.7936 150.625 95.0478C159.747 83.5848 168.926 86.4493 170.833 94.5891C173.131 104.403 141.504 136.919 141.504 136.919C141.504 136.919 137.615 141.606 131.807 138.147C124.941 134.059 130.066 127.177 130.066 127.177Z" fill="#FFC999"/>
<path fill-rule="evenodd" clip-rule="evenodd" d="M141.009 108.414C142.777 105.946 155.306 81.905 165.132 88.1583C173.457 93.4562 171.508 101.941 157.635 118.812L141.009 108.414Z" fill="#FF7A46"/>
<path fill-rule="evenodd" clip-rule="evenodd" d="M109.611 86.3213C119.397 115.123 120.964 122.611 125.702 131.47C133.571 146.18 145.272 138.728 142.203 129.972C140.277 124.476 133.981 114.684 129.419 105.707C122.988 93.0531 117.902 84.0081 117.902 84.0081L109.611 86.3213Z" fill="#FFC999"/>
<path d="M135.724 117.708C135.632 117.55 135.429 117.495 135.271 117.587C135.128 117.669 135.07 117.842 135.126 117.991L135.15 118.04L140.226 126.836C140.317 126.995 140.52 127.049 140.679 126.957C140.821 126.875 140.88 126.702 140.823 126.553L140.8 126.504L135.724 117.708Z" fill="#DD936F"/>
<path fill-rule="evenodd" clip-rule="evenodd" d="M118.07 84.3771L112.281 67.9632C112.281 67.9632 103.679 54.895 100.938 55.9066C98.4145 57.2099 104.528 60.7173 105.936 64.4749C103.454 64.4558 104.811 68.0628 104.811 68.0628C104.811 68.0628 102.839 68.1164 103.559 71.0804C101.802 72.2789 103.485 75.6254 103.485 75.6254C103.485 75.6254 107.731 84.4524 112.18 90.2366C112.18 90.2366 119.256 95.0196 118.07 84.3771Z" fill="#FFC999"/>
<path fill-rule="evenodd" clip-rule="evenodd" d="M116.661 78.7965C116.661 78.7965 115.59 73.1091 114.877 70.2222C114.164 67.3352 115.061 61.9828 113.023 63.5163C111.652 64.5469 112.101 67.6684 112.299 69.979C112.498 72.2887 109.115 78.0107 112.138 81.6297C114.18 84.0745 117.166 84.2224 116.661 78.7965Z" fill="#FFC999"/>
<path d="M106.161 64.2316C106.027 64.1071 105.817 64.1152 105.693 64.2497C105.569 64.3843 105.577 64.5942 105.711 64.7187L105.862 64.8625C105.984 64.9804 106.121 65.1151 106.267 65.2643C106.687 65.6907 107.107 66.1471 107.498 66.6141C107.896 67.0903 108.242 67.5509 108.52 67.9846C109.379 69.3267 109.475 70.1935 108.741 70.5564C108.577 70.6376 108.509 70.8366 108.59 71.001C108.671 71.1653 108.87 71.2327 109.034 71.1515C110.265 70.5429 110.123 69.2595 109.078 67.6265C108.784 67.1667 108.421 66.6841 108.006 66.1878C107.602 65.7059 107.171 65.2367 106.74 64.7985L106.522 64.5797L106.209 64.2764C106.189 64.2577 106.173 64.2428 106.161 64.2316Z" fill="#DD936F"/>
<path d="M104.776 67.9743C104.674 68.1266 104.715 68.3328 104.867 68.4348L105.022 68.5417C105.148 68.6296 105.287 68.7302 105.438 68.842C105.869 69.1613 106.299 69.5047 106.7 69.8584C107.167 70.2699 107.561 70.668 107.86 71.0394C108.523 71.8637 108.627 72.4082 108.182 72.7219C107.945 72.8894 107.657 72.9182 107.306 72.8182C106.93 72.7109 106.511 72.4623 106.08 72.1147C105.864 71.9404 105.66 71.7529 105.474 71.5655L105.272 71.3536C105.261 71.3412 105.252 71.3303 105.243 71.3209C105.123 71.1825 104.914 71.1676 104.776 71.2878C104.637 71.4079 104.623 71.6175 104.743 71.7559L104.821 71.8429C104.869 71.8949 104.93 71.9592 105.003 72.033C105.205 72.2368 105.427 72.4405 105.664 72.6314C106.158 73.03 106.648 73.3206 107.124 73.4565C107.654 73.6077 108.147 73.5584 108.564 73.2644C109.428 72.6549 109.247 71.7056 108.377 70.6232C108.051 70.2185 107.631 69.795 107.139 69.3604C106.722 68.9932 106.278 68.6383 105.833 68.3086L105.608 68.1442L105.236 67.8834C105.084 67.7813 104.878 67.8221 104.776 67.9743Z" fill="#DD936F"/>
<path d="M104.262 70.9264C104.08 70.9094 103.918 71.0437 103.901 71.2262C103.884 71.4087 104.018 71.5704 104.201 71.5873C104.591 71.6236 105.112 71.9446 105.758 72.6142C107.111 74.0164 107.428 74.9411 107.091 75.1687C106.733 75.4103 105.796 75.053 105.154 74.2491C104.897 73.9269 104.4 74.2696 104.61 74.6248C105.339 75.8629 106.153 76.7672 107.099 77.4582L107.349 77.6369C107.829 77.97 108.214 78.1748 109.071 78.5666L109.718 78.8589C111.723 79.7574 112.505 80.4994 113.051 82.54C113.099 82.7171 113.28 82.8221 113.457 82.7747C113.634 82.7272 113.739 82.5453 113.692 82.3682C113.103 80.1678 112.211 79.2755 110.167 78.334L109.228 77.9087C108.363 77.51 108.033 77.3191 107.49 76.9221C107.083 76.6247 106.702 76.2839 106.342 75.8871L106.285 75.8224L106.359 75.8432C106.742 75.9391 107.104 75.9206 107.386 75.765L107.461 75.7192C108.3 75.1537 107.842 73.8182 106.235 72.153C105.489 71.38 104.84 70.9801 104.262 70.9264Z" fill="#DD936F"/>
<path d="M112.057 66.759C111.892 66.7559 111.753 66.8736 111.725 67.0307L111.719 67.0845L111.637 71.4366L111.552 71.61L111.488 71.7497C111.351 72.0505 111.215 72.3858 111.088 72.7477C110.702 73.847 110.479 74.9524 110.506 75.9947C110.529 76.936 110.758 77.779 111.227 78.4914C111.327 78.6445 111.533 78.6869 111.686 78.5861C111.839 78.4853 111.881 78.2795 111.781 78.1264C111.386 77.5258 111.189 76.8027 111.168 75.9779C111.144 75.0275 111.352 73.9974 111.713 72.9679C111.834 72.6252 111.963 72.3079 112.091 72.0241L112.192 71.8093C112.22 71.7509 112.243 71.706 112.259 71.6756C112.275 71.6449 112.287 71.612 112.293 71.5779L112.298 71.5263L112.382 67.0972C112.386 66.9139 112.24 66.7625 112.057 66.759Z" fill="#DD936F"/>
<path fill-rule="evenodd" clip-rule="evenodd" d="M149.248 245.525C150.788 209.386 154.907 170.77 158.327 162.926C158.327 162.926 162.442 158.225 174.417 166.001C188.381 175.068 185.649 186.518 185.649 186.518L183.455 247.424C183.086 252.2 181.385 267.017 163.07 264.81C145.043 262.637 149.214 246.313 149.248 245.525Z" fill="#E4EBF7"/>
<path fill-rule="evenodd" clip-rule="evenodd" d="M193.156 141.528C186.252 143.776 168.464 143.955 166.307 143.216C164.151 142.477 165.773 138.362 165.773 138.362C156.258 117.031 156.392 117.351 155.752 112.862C155.116 108.404 158.531 100.343 158.531 100.343C158.531 100.343 155.506 91.8653 156.44 89.3609C157.702 85.9746 170.083 86.4956 172.306 85.1265C174.53 83.7566 174.26 79.3405 174.26 79.3405L191.195 77.634C191.195 77.634 191.697 82.6273 192.733 84.0958C194.749 86.9482 201.011 83.4676 205.993 89.1679C214.897 99.3561 199.328 121.102 194.265 135.06C194.265 135.06 196.645 138.181 193.156 141.528Z" fill="#FF7A46"/>
<path d="M187.384 84.7174L173.154 86.6542C172.917 86.6864 172.751 86.9044 172.784 87.1412C172.813 87.3583 172.999 87.5157 173.212 87.5157L173.27 87.5117L187.5 85.5749C187.737 85.5427 187.903 85.3247 187.87 85.0879C187.841 84.8708 187.655 84.7134 187.443 84.7134L187.384 84.7174Z" fill="#F5222D"/>
<path d="M183.963 87.2591L174.084 89.3724C173.851 89.4224 173.702 89.6523 173.752 89.886C173.798 90.1002 173.994 90.2432 174.207 90.2271L174.265 90.2187L184.143 88.1054C184.377 88.0555 184.526 87.8255 184.476 87.5918C184.43 87.3776 184.233 87.2346 184.021 87.2507L183.963 87.2591Z" fill="#F5222D"/>
<path d="M191.974 109.725C191.8 109.562 191.526 109.572 191.363 109.746L191.295 109.817C191.198 109.911 191.045 110.049 190.836 110.219C190.381 110.588 189.834 110.959 189.197 111.305C186.68 112.675 183.575 113.273 179.88 112.663L179.562 112.608C178.213 112.362 175.034 112.398 170.526 112.64L169.271 112.711C168.633 112.748 167.981 112.789 167.317 112.833L166.65 112.878C165.448 112.96 164.269 113.046 163.147 113.134L160.935 113.314C160.697 113.335 160.521 113.545 160.542 113.783C160.562 114.021 160.772 114.197 161.01 114.176L162.396 114.062L163.779 113.953C164.726 113.881 165.71 113.809 166.709 113.741L168.031 113.654C168.685 113.612 169.326 113.574 169.952 113.538L171.44 113.459C175.315 113.268 178.102 113.247 179.321 113.445L179.407 113.46C183.443 114.194 186.853 113.566 189.61 112.065C190.295 111.693 190.885 111.293 191.38 110.891L191.567 110.736C191.768 110.565 191.911 110.427 191.996 110.336C192.159 110.162 192.149 109.888 191.974 109.725Z" fill="#F5222D"/>
<path d="M158.803 94.9243C158.584 94.9168 158.398 95.0732 158.362 95.2833L158.356 95.3419L158.182 100.421L158.089 100.638C157.99 100.874 157.88 101.143 157.761 101.443C157.423 102.298 157.084 103.224 156.768 104.186C156.34 105.489 155.987 106.757 155.734 107.955C155.414 109.477 155.267 110.831 155.326 111.98C155.421 113.799 155.927 116.101 156.768 118.78C157.18 120.094 157.665 121.474 158.209 122.897C158.84 124.548 159.515 126.172 160.191 127.699L160.532 128.462L160.963 129.399C161.021 129.522 161.065 129.615 161.093 129.674C161.197 129.89 161.455 129.98 161.67 129.877C161.885 129.773 161.976 129.515 161.872 129.299L161.628 128.779L161.319 128.104C161.211 127.866 161.098 127.613 160.981 127.348C160.311 125.834 159.641 124.224 159.016 122.588C158.479 121.18 157.999 119.817 157.592 118.521C156.772 115.905 156.28 113.668 156.19 111.935C156.135 110.872 156.274 109.588 156.58 108.134C156.825 106.97 157.17 105.731 157.589 104.456C157.848 103.669 158.122 102.906 158.399 102.188L158.565 101.762C158.658 101.527 158.746 101.311 158.827 101.116L159.006 100.694C159.021 100.66 159.032 100.625 159.037 100.588L159.043 100.534L159.22 95.3716C159.228 95.1328 159.042 94.9325 158.803 94.9243Z" fill="#F5222D"/>
<path fill-rule="evenodd" clip-rule="evenodd" d="M172.172 189.018L156.076 173.693C156.076 173.693 157.975 156.108 165.639 147.931L194.929 144.686C194.929 144.686 207.047 150.607 212.713 172.873L186.831 188.036L172.172 189.018Z" fill="#E4EBF7"/>
<path fill-rule="evenodd" clip-rule="evenodd" d="M195.64 144.978L165.639 147.931L166.04 143.271L194.287 140.28L195.64 144.978Z" fill="#E4EBF7"/>
<path d="M176.112 147.163C175.933 147.156 175.782 147.295 175.775 147.475C175.66 150.342 175.64 153.441 175.706 156.736C175.83 162.838 176.24 169.366 176.847 175.958L176.967 177.236C177.17 179.345 177.381 181.343 177.594 183.194L177.763 184.64L178.026 186.739C178.05 186.917 178.213 187.041 178.391 187.017C178.568 186.993 178.692 186.83 178.669 186.652L178.506 185.375C178.442 184.86 178.374 184.291 178.301 183.67L178.174 182.562C177.941 180.497 177.711 178.261 177.493 175.898C176.887 169.321 176.477 162.808 176.355 156.723C176.288 153.44 176.308 150.355 176.423 147.501C176.43 147.321 176.291 147.17 176.112 147.163Z" fill="#A3B5D6"/>
<path d="M195.548 144.899L166.134 147.636C165.956 147.653 165.825 147.811 165.841 147.989C165.856 148.15 165.985 148.272 166.141 148.283L166.194 148.282L195.608 145.545C195.786 145.528 195.917 145.37 195.901 145.192C195.886 145.031 195.756 144.909 195.601 144.898L195.548 144.899Z" fill="#A3B5D6"/>
<path fill-rule="evenodd" clip-rule="evenodd" d="M184.213 237.418C180.23 201.466 178.351 161.778 180.537 153.505C180.537 153.505 183.887 148.23 196.907 154.087C212.089 160.917 212.57 173.851 212.57 173.851L219.182 233.869C219.545 238.646 220.997 252.532 202.723 255.04C184.734 257.509 184.299 238.201 184.213 237.418Z" fill="#E4EBF7"/>
<path fill-rule="evenodd" clip-rule="evenodd" d="M207.185 135.183C207.185 135.183 195.46 109.952 193.636 103.668C189.233 88.4881 196.058 85.525 203.897 88.9996C213.345 93.1881 224.798 134.42 224.798 134.42C224.798 134.42 225.812 139.65 219.672 142.528C212.416 145.931 207.185 135.183 207.185 135.183Z" fill="#FFC999"/>
<path fill-rule="evenodd" clip-rule="evenodd" d="M200.126 119.832C199.121 116.966 183.28 92.6772 197.09 86.5096C206.099 82.4855 210.957 90.7716 218.845 112.024L200.126 119.832Z" fill="#FF7A46"/>
<path fill-rule="evenodd" clip-rule="evenodd" d="M163.43 137.869C163.69 140.508 165.879 142.535 168.526 142.592L215.071 143.598C220.416 143.713 224.693 139.187 224.282 133.851C223.881 128.635 219.161 124.845 213.988 125.584L167.899 132.166C165.124 132.562 163.154 135.076 163.43 137.869Z" fill="#FFC999"/>
<path fill-rule="evenodd" clip-rule="evenodd" d="M167.24 149.85L157.007 117.806C156.837 117.277 156.351 116.916 155.796 116.909L127.101 116.52C126.211 116.508 125.576 117.384 125.866 118.227L136.548 149.421C136.719 149.923 137.181 150.268 137.71 150.292L165.956 151.532C166.851 151.571 167.513 150.705 167.24 149.85Z" fill="#253368"/>
<path fill-rule="evenodd" clip-rule="evenodd" d="M165.727 149.46L155.672 117.973C155.467 117.334 154.878 116.897 154.207 116.887L125.157 116.493C124.534 116.485 124.09 117.098 124.293 117.688L135.124 149.313C135.314 149.869 135.824 150.252 136.41 150.277L164.173 151.496C165.258 151.544 166.057 150.495 165.727 149.46Z" fill="#253368"/>
<path fill-rule="evenodd" clip-rule="evenodd" d="M151.738 119.921C151.414 120.283 151.531 120.918 152 121.341C152.469 121.763 153.112 121.812 153.437 121.451C153.762 121.089 153.645 120.454 153.176 120.03C152.708 119.609 152.063 119.56 151.738 119.921Z" fill="#ADC6FF"/>
<path fill-rule="evenodd" clip-rule="evenodd" d="M152.124 120.3C151.956 120.487 152.016 120.817 152.26 121.037C152.503 121.255 152.837 121.281 153.006 121.093C153.175 120.905 153.114 120.576 152.87 120.357C152.627 120.138 152.293 120.112 152.124 120.3Z" fill="#E4EBF7"/>
<path fill-rule="evenodd" clip-rule="evenodd" d="M154.466 143.825C152.818 143.665 151.95 142.975 152.106 141.6C150.123 140.976 150.345 139.294 150.345 139.294C150.345 139.294 146.528 139.235 145.885 137.603C145.636 136.969 146.12 136.289 146.799 136.244C154.977 135.689 160.808 131.352 160.808 131.352C160.808 131.352 157.594 126.625 157.934 124.444C158.034 123.798 158.877 123.591 159.27 124.111C162.642 128.565 169.403 132.058 169.403 132.058C169.403 132.058 177.518 139.669 168.714 143.121C168.714 143.121 162.004 145.798 157.331 145.459C155.12 145.298 154.466 143.825 154.466 143.825Z" fill="#FFC999"/>
<path d="M156.359 137.843C156.291 137.721 156.137 137.677 156.015 137.745C155.429 138.073 154.744 138.34 153.981 138.551C153.072 138.802 152.095 138.963 151.112 139.05C150.619 139.094 150.198 139.114 149.88 139.119L149.65 139.12C149.51 139.118 149.396 139.23 149.394 139.37C149.392 139.495 149.48 139.6 149.598 139.623L149.643 139.627L149.767 139.628C150.108 139.626 150.586 139.606 151.157 139.556C152.168 139.466 153.174 139.3 154.116 139.04C154.916 138.819 155.638 138.537 156.262 138.188C156.384 138.12 156.428 137.965 156.359 137.843Z" fill="#DD936F"/>
<path d="M157.13 140.358C157.069 140.232 156.917 140.179 156.791 140.24L156.564 140.347C155.593 140.785 154.549 141.067 153.502 141.221C152.855 141.317 152.336 141.348 152.014 141.345C151.87 141.343 151.756 141.455 151.754 141.595C151.752 141.72 151.84 141.825 151.958 141.848L152.003 141.852L152.11 141.852L152.337 141.846C152.664 141.832 153.085 141.795 153.576 141.723C154.667 141.562 155.755 141.269 156.773 140.809L157.012 140.697C157.138 140.636 157.191 140.484 157.13 140.358Z" fill="#DD936F"/>
<path d="M158.584 143.17C158.523 143.044 158.372 142.991 158.246 143.052C157.977 143.182 157.341 143.304 156.476 143.404C156.034 143.455 155.56 143.497 155.085 143.532L154.626 143.562L154.453 143.572C154.313 143.579 154.206 143.698 154.213 143.838C154.22 143.978 154.339 144.086 154.479 144.079L154.657 144.068C154.797 144.06 154.953 144.05 155.122 144.037C155.603 144.003 156.084 143.959 156.534 143.907L156.89 143.864C157.631 143.766 158.172 143.651 158.466 143.508C158.592 143.447 158.645 143.296 158.584 143.17Z" fill="#DD936F"/>
<path d="M214 125.33L213.954 125.332L169.016 131.478C168.877 131.497 168.78 131.625 168.799 131.764C168.816 131.887 168.919 131.978 169.039 131.983L169.084 131.981L214.022 125.835C214.161 125.816 214.258 125.688 214.239 125.549C214.222 125.426 214.119 125.336 214 125.33Z" fill="#DD936F"/>
<path d="M194.436 106.743C194.339 106.524 194.084 106.426 193.866 106.523C193.666 106.612 193.566 106.834 193.626 107.039L193.646 107.094L199.488 120.252C199.577 120.452 199.8 120.551 200.005 120.491L200.06 120.471L218.558 112.186C218.776 112.089 218.873 111.833 218.776 111.615C218.687 111.415 218.464 111.316 218.26 111.376L218.205 111.397L200.103 119.503L194.436 106.743Z" fill="#F5222D"/>
</g>
<defs>
<linearGradient id="paint0_linear" x1="240.409" y1="92.8712" x2="82.6213" y2="93.1818" gradientUnits="userSpaceOnUse">
<stop stop-color="#FA4A0C"/>
<stop offset="1" stop-color="#FA4A0C" stop-opacity="0"/>
</linearGradient>
<linearGradient id="paint1_linear" x1="240.409" y1="92.8712" x2="82.6213" y2="93.1818" gradientUnits="userSpaceOnUse">
<stop stop-color="#FA4A0C"/>
<stop offset="1" stop-color="#FA4A0C" stop-opacity="0"/>
</linearGradient>
<linearGradient id="paint2_linear" x1="240.409" y1="92.8712" x2="82.6213" y2="93.1818" gradientUnits="userSpaceOnUse">
<stop stop-color="#FA4A0C"/>
<stop offset="1" stop-color="#FA4A0C" stop-opacity="0"/>
</linearGradient>
<clipPath id="clip0">
<path d="M0 0H257.182V141.636C257.182 153.987 247.169 164 234.818 164H22.3636C10.0125 164 0 153.987 0 141.636V0Z" fill="white"/>
</clipPath>
<clipPath id="clip1">
<rect width="27.9545" height="27.3333" fill="white" transform="translate(59.0151 101.879) rotate(30)"/>
</clipPath>
<clipPath id="clip2">
<rect width="23.8885" height="23.8885" fill="white" transform="translate(219.909 123.592) rotate(-15)"/>
</clipPath>
<clipPath id="clip3">
<rect width="29.7404" height="29.7404" fill="white" transform="translate(23.5673 49.0758) rotate(30)"/>
</clipPath>
</defs>
</svg>
